<svg version="1.1" xmlns="http://www.w3.org/2000/svg" xmlns:xlink="http://www.w3.org/1999/xlink" xmlns:ev="http://www.w3.org/2001/xml-events" width="491" height="464" viewBox="0 0 491 464"><path d="M 380,0" fill="none" stroke="#0425ae" stroke-width="3" /><path d="M 380,61 395,75 411,89 426,103 441,117 434,141 428,166 421,190 403,200 384,211 366,221 366,248 381,242 383,211 385,180 386,149 388,118 389,87 391,56 408,62 406,97 404,132 403,166 402,201 400,236 415,224 417,192 419,159 420,127 422,94 424,62 440,77 438,111 437,146 436,180 434,214 450,199 451,170 454,141 455,113 457,84 471,103 470,136 468,170 436,176 403,182 382,202 362,223 357,243 351,264 362,265 351,268 342,265 362,264 342,262 360,260 345,258 362,256 345,254 361,252 369,251 352,250 340,250 352,251 380,250 364,249 337,248 339,246 377,248 391,248 352,244 332,242 364,242 396,245 377,241 339,239 327,237 353,237 391,241 405,239 365,236 327,233 323,233 341,232 379,235 412,238 392,234 353,230 318,228 328,226 366,229 406,233 419,232 379,228 341,225 316,223 353,224 392,227 424,229 406,226 366,222 328,219 322,219 341,219 379,221 419,225 433,225 393,221 354,217 329,215 367,215 407,219 438,223 421,218 381,215 343,212 334,211 354,210 394,214 434,218 449,220 447,216 407,213 367,209 339,207 381,208 421,212 453,215 434,211 394,207 354,204 343,203 368,202 408,206 448,209 457,211 421,205 381,201 348,199 356,197 396,201 434,204 460,207 449,203 409,199 369,195 352,194 382,195 422,198 464,202 436,198 396,194 355,190 369,188 409,192 449,196 467,198 463,195 423,192 383,188 356,186 396,187 436,191 469,195 449,189 409,186 370,182 359,181 384,181 423,185 463,189 472,190 437,184 397,180 362,177 371,175 411,179 451,184 475,186 464,182 424,178 384,174 364,172 398,174 438,178 477,181 451,177 411,172 371,168 366,168 385,167 424,171 464,175 479,177 438,171 398,167 368,163 411,165 451,170 481,173 465,169 425,165 386,161 370,159 399,160 439,164 478,168 483,168 453,164 413,159 372,155 386,154 426,158 466,162 485,164 479,161 439,157 399,153 373,150 413,152 453,157 486,159 466,155 426,151 386,147 374,146 400,147 440,151 480,155 487,155 453,150 413,145 376,141 388,141 428,145 467,149 487,151 481,148 441,144 401,140 377,138 414,138 454,143 489,146 468,142 428,138 388,134 377,133 401,133 441,137 481,141 489,142 455,137 415,133 377,129 388,127 428,131 468,135 489,137 482,135 442,130 402,126 379,124 416,126 455,130 489,133 469,128 429,124 389,120 379,120 403,120 443,124 483,128 490,128 456,123 416,119 379,115 390,114 430,118 470,122 489,124 483,121 443,117 403,113 379,111 417,112 457,117 488,119 470,115 430,111 390,107 379,106 403,106 443,110 487,115 457,110 418,106 379,102 391,100 431,104 471,108 486,110 445,104 405,100 379,97 418,99 458,103 485,106 471,102 432,97 392,93 378,91 405,93 445,97 483,101 458,96 418,92 377,87 392,87 432,91 472,95 481,97 445,90 406,86 377,82 380,81 420,86 459,90 478,92 473,88 433,84 393,80 375,78 407,79 447,84 476,87 460,83 420,79 380,75 372,73 393,73 433,78 472,82 447,77 407,73 369,69 380,68 420,72 460,77 467,77 434,71 394,67 367,64 408,66 447,71 462,72 422,66 382,61 366,60 395,60 435,64 456,66 448,64 408,60 369,55 382,55 422,59 449,62 429,59 405,57 386,55 371,53 389,54 413,56 436,56 421,55 407,53 395,51 381,50 369,56 362,74" fill="none" stroke="#0425ae" stroke-width="3" /><path d="M 374,84 372,108 370,132 369,156 355,178 356,147 358,117 359,86 361,56 346,39 344,73 342,106 340,140 338,173 336,207 320,214 321,183 323,152 325,121 325,91 327,60 328,29 312,20 310,55 308,89 306,124 306,159 304,193 302,228 286,225 288,191 290,157 290,123 292,89 294,55 296,21 279,28 278,59 276,91 274,122 272,153 270,185 268,216 254,202 256,168 257,133 258,99 259,64 261,30 245,42 244,77 242,112 239,146 237,181 222,155 224,121 225,88 227,54 246,83 266,113 285,142 289,176 292,211 295,245 308,248 286,252 306,244 286,248 303,240 287,243 304,236 286,238 300,234 315,228 293,232 277,236 298,230 317,226 331,221 309,225 287,229 272,231 279,211 284,178 289,145 295,111 300,78 304,45 310,13 295,16 281,18 267,20 249,23 270,21 282,18 295,16 308,14 296,18 280,21 262,24 239,30 256,27 284,22 303,18 327,15 314,17 274,24 239,30 261,28 301,21 331,16 328,19 288,26 249,32 229,36 236,37 275,30 315,23 338,19 302,27 263,34 223,41 250,39 289,33 329,26 345,22 316,30 277,37 237,44 218,47 224,48 264,41 303,34 342,27 350,26 330,32 291,39 251,46 216,52 238,50 277,43 317,36 355,30 344,33 305,40 265,47 226,54 213,57 252,53 291,46 331,39 359,33 319,43 279,50 240,57 211,62 226,61 266,54 305,47 345,41 363,37 333,45 293,52 254,59 214,66 209,66 240,63 280,56 319,49 359,42 364,41 346,47 307,54 268,61 228,67 207,71 215,72 254,65 294,59 333,52 368,45 360,49 321,56 281,63 242,70 205,76 229,75 268,68 308,61 347,54 370,48 335,58 295,65 256,72 216,79 202,81 243,76 282,69 322,62 361,55 372,52 349,60 309,67 270,74 230,81 201,86 217,85 257,78 296,71 335,65 375,56 362,62 323,69 284,76 244,83 201,90 231,88 270,81 310,74 349,67 377,60 337,71 298,78 258,85 219,92 201,95 205,96 245,89 284,82 324,76 361,68 379,64 351,73 312,80 272,87 233,94 200,100 219,98 259,91 298,84 338,78 375,70 380,69 363,75 326,83 286,90 247,97 207,102 199,104 233,101 273,94 312,87 352,80 382,74 377,76 339,84 300,91 261,98 221,105 199,109 208,110 247,103 287,96 326,89 364,81 384,78 353,86 314,93 274,100 235,107 199,113 222,111 261,104 301,97 340,90 378,83 386,82 365,88 328,96 288,102 249,109 210,116 198,118 236,114 275,107 315,100 354,93 386,86 379,90 342,98 302,104 263,111 223,118 199,122 210,123 250,116 289,109 329,102 366,94 387,90 356,99 316,106 277,113 237,120 200,126 224,124 264,117 303,111 342,104 380,96 388,95 368,101 330,109 291,115 251,122 212,129 201,131 238,127 277,120 317,113 356,106 389,99 382,103 344,111 305,118 265,125 226,132 201,135 212,136 252,129 291,122 331,115 368,107 389,104 358,112 319,119 279,126 240,133 202,139 226,138 266,131 305,124 345,117 382,109 388,108 370,114 333,121 293,128 254,135 214,142 204,144 240,139 280,133 319,126 359,119 389,112 384,116 346,124 307,131 268,138 228,145 205,148 215,149 254,142 294,135 333,128 371,120 389,117 358,125 321,133 281,139 242,146 207,153 229,151 268,144 308,137 347,130 385,122 389,121 372,127 335,134 295,141 256,148 216,155 208,157 243,152 282,146 322,140 359,132 388,126 349,137 309,144 270,151 230,158 210,161 217,162 257,155 296,148 336,141 373,133 388,131 361,138 323,146 284,153 244,160 212,165 231,164 271,157 310,150 349,143 387,135 375,139 337,147 298,154 258,161 219,168 214,169 245,166 284,159 324,153 361,145 386,140 351,150 312,157 272,164 233,171 216,173 259,168 298,161 338,154 375,146 385,145 363,151 326,159 286,166 247,173 218,177 233,177 273,170 312,163 352,156 384,149 377,153 340,161 300,168 261,174 220,181 247,179 287,172 326,165 364,158 383,154 353,163 314,170 274,177 235,183 223,186 261,182 301,175 340,168 382,159 365,164 328,172 288,179 249,186 226,190 236,190 275,183 315,176 354,169 379,164 342,174 302,181 263,188 228,194 250,192 289,185 329,178 366,171 377,169 356,176 316,183 277,189 237,196 232,197 264,195 303,188 342,181 374,173 368,177 330,185 291,192 251,199 235,201 277,196 317,189 355,182 372,178 344,187 305,194 265,201 239,205 252,205 291,198 331,191 368,183 356,189 319,196 279,203 243,210 266,208 305,201 345,194 365,189 333,198 293,205 254,212 247,213 280,210 319,203 357,195 362,194 346,200 307,207 268,214 250,217 294,211 333,204 358,199 321,209 281,216 255,220 268,220 308,214 347,207 354,205 335,211 295,218 260,225 282,223 322,216 348,211 309,220 270,227 265,228 296,224 336,218 340,218 323,222 284,229 271,231 254,231 237,228" fill="none" stroke="#b39e3a" stroke-width="3" /><path d="M 222,214 213,202 203,185 197,175 185,145 171,117 159,88 157,117 156,146 154,175 169,198 171,166 172,135 175,103 177,72 193,67 191,97 190,127 188,156 187,186 185,216 201,226 203,193 205,159 219,186 219,210 219,235 234,241 237,207 250,241 253,219 259,239 252,251 254,260 264,256 245,265 262,253 245,261 261,251 245,258 260,247 243,254 254,246 267,238 261,235 235,253 245,247 260,239 255,238 229,251 242,246 253,238 227,250 228,247 264,230 274,225 239,240 221,248 250,232 270,222 261,225 225,241 215,245 236,233 266,220 247,226 210,243 222,236 258,218 262,217 234,227 204,241 208,237 244,220 259,213 220,229 199,238 230,222 255,210 241,214 205,231 194,236 217,223 251,207 227,216 190,233 203,225 239,208 248,204 213,217 185,230 189,227 225,210 245,201 236,202 200,218 182,228 211,211 242,197 222,204 186,221 178,224 197,213 233,196 240,193 208,205 174,221 183,215 219,197 237,189 231,190 194,207 171,218 205,200 234,186 217,192 181,208 167,215 191,201 228,184 231,182 202,193 164,212 178,202 214,186 229,179 188,195 162,207 164,205 200,187 226,175 211,180 174,197 159,204 186,189 225,172 197,181 161,198 156,200 171,191 208,174 222,167 183,183 153,197 157,192 194,175 220,163 206,168 169,185 150,193 180,177 218,159 192,170 155,186 149,189 166,179 203,161 216,155 178,171 147,186 152,180 189,164 215,151 199,156 163,172 145,181 175,165 214,147 186,158 149,175 143,177 161,166 197,150 213,143 208,143 172,159 141,173 147,169 183,151 212,138 194,144 158,161 140,169 169,153 205,136 212,134 180,145 144,162 139,165 155,155 191,138 210,130 203,130 167,148 137,160 141,156 177,140 209,125 189,132 153,149 136,156 163,141 200,124 208,121 174,134 135,151 150,143 186,126 208,116 197,118 160,135 136,147 172,128 207,111 183,120 146,136 135,142 158,129 195,113 207,106 169,122 134,137 144,130 181,114 207,101 192,107 155,123 134,133 166,115 202,99 208,97 178,108 141,125 135,128 152,117 188,101 209,92 200,93 164,109 135,123 175,102 210,87 186,94 150,112 136,117 161,103 197,87 210,81 171,96 138,112 147,105 183,88 212,75 194,81 157,98 139,106 169,90 206,73 215,69 180,82 142,100 155,92 192,75 218,63 203,67 166,84 145,93 177,77 217,59 189,69 149,86 163,78 200,61 215,55 197,63 181,71 163,78 152,84 164,75 179,69 191,64 206,54 193,60 178,66 164,73" fill="none" stroke="#47ae6b" stroke-width="3" /><path d="M 174,98 170,110 165,127 157,134 169,137 156,129 173,134 156,125 174,129 159,122 173,125 166,123 170,109 173,100 164,110 175,114 163,105 177,110 164,100 178,106 164,96 181,102 166,92 182,99 167,89 185,95 168,87 187,92 179,78 191,84 174,81 190,88 171,84 187,92 171,84 162,76 172,67 184,60 197,57 215,57 222,48 230,37 241,27 252,43 270,44 260,36 263,54 247,46 255,65 239,58 250,78 233,73 247,91 232,86 238,97 236,117 247,127 234,124 246,123 232,131 245,134 229,127 249,131 229,123 251,127 232,118 250,122 236,116 249,118 243,117 236,116 239,96 246,102 231,101 250,98 228,96 251,94 227,91 252,90 226,86 252,86 226,82 253,83 227,77 253,79 228,73 254,75 229,69 256,72 230,64 257,69 232,60 259,66 234,56 261,62 236,52 264,59 239,48 266,57 242,44 268,53 244,41 271,50 253,35 269,39 268,30 277,36 261,31 277,40 257,33 276,44 253,35 274,47 249,38 271,50 249,38 241,28 252,21 268,15 284,11 300,10 317,12 332,18 345,26 357,35 367,52 379,55 393,50 409,49 424,52 434,54 446,64 457,73 468,86 455,91 441,87 450,83 445,99 456,94 450,111 461,107 450,124 464,123 449,137 461,137 454,145 451,164 440,167 453,167 443,165 452,175 440,175 456,171 438,171 456,167 437,167 455,165 439,164 451,164 440,164 446,164 451,164 454,144 447,148 458,152 443,144 463,147 445,139 466,143 447,136 467,138 447,132 468,134 447,129 468,129 448,125 469,124 448,121 469,120 447,117 469,115 446,113 468,111 446,110 467,105 445,106 466,102 442,101 464,99 441,99 462,93 439,98 461,90 438,94 455,83 443,82 446,75 435,78 451,78 434,82 453,80 434,86 455,83 435,90 457,86 438,94 457,86 455,87 469,88 477,98" fill="none" stroke="#33ea74" stroke-width="3" /><path d="M 479,110 485,122 482,131 487,141 480,152 480,164 474,173 472,186 463,191 460,203 453,206 447,216 435,223 427,233 416,236 409,245 393,246 381,255 369,252 363,257 352,255 352,255 360,261 363,272 351,272 341,272 344,262 351,249 360,261 366,272 351,273 338,271 351,272 347,292 351,272 347,292 342,313 347,292 342,313 337,335 342,313 337,335 332,357 337,335 332,357 328,378 332,357 328,378 323,399 328,378 323,399 318,421 323,399 318,421 313,442 318,421 313,442 308,464 313,442 308,464 308,441 308,464 308,441 307,418 308,441 307,418 306,394 307,418 306,394 304,371 306,394 304,371 303,348 304,371 303,348 300,325 303,348 300,325 296,301 300,325 296,301 293,276 296,301 293,276 290,254 293,276 290,254 308,250 303,235 312,230 327,233 328,225 315,229 323,229 332,229 319,234 335,234 322,238 339,237 327,242 342,241 331,246 345,245 336,251 350,248 341,254 352,251 345,257 355,250 346,257 339,270 350,271 365,273 360,261 354,250 360,261 357,253 366,260 361,251 371,260 366,250 376,258 370,249 382,257 375,248 387,255 379,247 392,255 383,245 397,253 388,244 402,251 392,243 407,249 397,241 413,247 403,238 418,244 407,235 423,241 412,233 428,237 416,230 433,235 421,227 438,231 425,224 442,227 430,221 446,223 434,218 451,220 438,214 455,216 441,211 458,212 445,207 462,207 449,203 466,203 452,200 469,199 455,196 472,194 458,192 475,189 461,188 478,184 464,183 480,179 466,179 482,174 468,174 484,169 470,171 487,164 473,166 488,158 474,161 489,153 475,156 491,148 476,151 491,142 477,146 491,136 478,141 491,129 478,135 491,124 478,130 490,118 478,125 488,112 477,120 487,107 476,116 485,101 475,111 483,96 474,107 480,91 472,102 478,86 470,98 475,81 468,94 471,76 465,90 467,72 463,86 463,67 459,82 459,64 456,79 454,59 452,74 448,56 447,71 443,53 444,68 438,51 440,65 434,48 436,62 429,46 431,60 424,45 427,58 419,43 422,57 413,42 418,55 408,42 413,54 402,42 408,54 396,42 403,54 390,42 398,53 385,44 392,54 379,44 387,55 373,45 382,56 375,51 367,48 377,57 371,52 374,63 378,74 382,88 384,102 384,115 383,130 381,143 377,157 371,169 364,182 356,195 348,206 338,215 327,222 313,230 301,236 311,250 293,254 284,256 287,242 284,233 287,241 284,256 296,254 309,251 302,239 306,233 291,235 304,230 299,238 309,227 304,238 313,224 309,236 317,222 315,234 321,219 320,233 326,216 325,230 330,212 330,227 335,209 335,224 339,206 340,220 343,202 346,216 348,198 350,212 352,193 354,207 355,189 357,202 356,184 361,197 360,179 365,192 363,174 368,187 365,169 371,181 367,164 375,177 370,159 377,171 371,154 379,166 373,148 382,160 374,143 384,154 376,137 386,148 377,133 388,142 377,127 389,136 378,121 390,129 378,116 391,123 378,110 391,117 377,104 391,111 378,98 390,105 377,93 390,99 375,87 389,93 375,82 388,87 373,77 387,81 371,72 385,75 369,67 383,70 367,62 381,64 364,58 378,58 362,53 375,53 360,49 372,48 358,46 370,44 354,42 366,40 351,39 363,36 347,36 361,32 343,33 357,28 339,30 353,25 335,28 349,22 332,26 344,18 327,24 339,15 323,22 334,13 318,21 329,11 313,20 324,8 309,19 318,7 304,18 314,6 299,18 308,4 293,18 302,4 288,18 296,5 282,18 289,6 277,19 283,6 272,21 277,7 268,22 272,9 262,23 266,9 258,25 261,11 254,28 256,14 250,30 251,16 247,32 246,18 243,35 242,21 240,38 237,25 235,42 233,28 232,46 229,31 229,49 225,36 226,53 220,40 224,57 217,44 220,61 213,49 217,66 207,59 209,71 206,83 203,96 203,110 204,124 206,139 212,152 217,167 223,179 232,190 240,200 250,211 259,219 270,227 280,234 286,241 295,234 279,239 290,232 273,235 285,229 268,232 280,227 263,229 275,223 257,225 271,220 252,221 266,217 248,218 263,214 243,214 258,210 240,209 254,207 236,205 250,203 232,201 246,200 229,196 243,196 226,192 240,191 222,186 237,187 219,182 233,183 215,177 230,178 213,172 228,174 210,167 225,169 208,162 223,164 205,157 220,159 204,150 219,154 202,144 216,149 200,138 214,144 199,132 212,139 198,126 211,133 197,120 210,128 197,114 209,122 197,108 208,117 196,101 208,111 198,95 208,105 198,89 208,100 199,83 210,94 200,77 211,88 203,71 212,83 205,65 215,77 208,59 216,72 211,54 218,66 213,49 207,59 214,49 202,60 208,48 197,61 202,49 193,62 197,50 188,63 191,51 183,65 185,51 179,67 180,53 175,69 175,55 171,72 169,57 168,74 165,60 163,78 161,64 160,82 157,68 158,86 153,72 155,90 149,76 152,95 146,81 150,100 143,86 148,104 141,92 147,109 137,98 145,114 136,103 144,119 134,109 144,124 132,115 144,129 131,121 143,134 131,126 143,139 130,132 144,144 130,138 145,148 131,144 145,153 132,149 146,158 132,155 148,164 133,160 149,169 135,165 150,173 136,171 153,178 138,176 155,182 141,180 158,187 143,185 160,191 145,191 163,195 148,196 167,200 151,201 170,204 155,205 174,207 158,210 177,211 162,214 181,214 166,219 185,218 170,223 189,221 175,226 194,224 178,230 198,226 183,234 203,230 188,236 206,232 193,239 211,234 199,241 216,236 204,244 221,239 210,246 226,240 216,248 230,241 221,250 235,243 226,251 240,245 232,253 245,246 238,255 250,247 244,256 246,270 257,266 267,261 260,251 250,247 259,246 266,239 276,236 267,231 276,236 262,235 272,239 258,240 269,243 255,243 265,247 250,247 260,251 267,261 257,266 246,270 244,256 248,270 255,290 248,270 255,290 262,311 255,290 262,311 268,332 262,311 268,332 275,353 268,332 275,353 282,374 275,353 282,374 288,394 282,374 288,394 295,416 288,394 295,416 301,436 295,416 301,436 308,458 301,436 308,458 307,456 306,459" fill="none" stroke="#7236a0" stroke-width="3" /></svg>